<svg xmlns="http://www.w3.org/2000/svg" xmlns:xlink="http://www.w3.org/1999/xlink" id="Layer_1" x="0px" y="0px" viewBox="0 0 1440 432" style="enable-background:new 0 0 1440 432;" xml:space="preserve"><style type="text/css">	.st0{fill:url(#SVGID_1_);}	.st1{fill:url(#SVGID_00000158006472137750108570000001873053627150414217_);}	.st2{fill:#243B7A;}	.st3{fill:#99C1E2;}	.st4{fill:#FFFFFF;}</style><g>	<radialGradient id="SVGID_1_" cx="202.1233" cy="215.4206" r="127.0516" gradientUnits="userSpaceOnUse">		<stop offset="0" style="stop-color:#243B7A"></stop>		<stop offset="3.034061e-02" style="stop-color:#A0C9EC"></stop>		<stop offset="0.9995" style="stop-color:#002C68"></stop>	</radialGradient>	<circle class="st0" cx="202.1" cy="215.4" r="127.1"></circle>			<radialGradient id="SVGID_00000029047131740065553120000006002430635266771077_" cx="202.1232" cy="215.4206" r="130.0515" gradientUnits="userSpaceOnUse">		<stop offset="0" style="stop-color:#243B7A"></stop>		<stop offset="3.034061e-02" style="stop-color:#A0C9EC"></stop>		<stop offset="0.9995" style="stop-color:#002C68"></stop>	</radialGradient>	<path style="fill:url(#SVGID_00000029047131740065553120000006002430635266771077_);" d="M202.1,345.5  c-71.7,0-130.1-58.3-130.1-130.1S130.4,85.4,202.1,85.4s130.1,58.3,130.1,130.1S273.8,345.5,202.1,345.5z M202.1,91.4  c-68.4,0-124.1,55.6-124.1,124.1s55.6,124.1,124.1,124.1c68.4,0,124.1-55.6,124.1-124.1S270.5,91.4,202.1,91.4z"></path></g><path class="st2" d="M201.6,383.4c-92.6,0-167.9-75.3-167.9-167.9S109,47.7,201.6,47.7c92.6,0,167.9,75.3,167.9,167.9 S294.1,383.4,201.6,383.4z M201.6,53.7c-89.3,0-161.9,72.6-161.9,161.9s72.6,161.9,161.9,161.9c89.3,0,161.9-72.6,161.9-161.9 S290.8,53.7,201.6,53.7z"></path><g>	<path class="st2" d="M69.3,254.3l-11.5,3.3l1.2,4.3l-1.5,0.4l-3-10.4l1.5-0.4l1.2,4.3l11.5-3.3L69.3,254.3z"></path>	<path class="st2" d="M66,241.2l-13.5,2l-0.3-1.8l5.5-0.8l-1-7l-5.5,0.8l-0.3-1.8l13.5-2l0.3,1.8l-6.3,0.9l1,7l6.3-0.9L66,241.2z"></path>	<path class="st2" d="M63.8,222.3l-13.6,0.2l-0.2-9.8l1.6,0l0.1,8l4.2-0.1l-0.1-7.5l1.6,0l0.1,7.5l4.6-0.1l-0.1-8.3l1.6,0  L63.8,222.3z"></path>	<path class="st2" d="M64.9,196.1l-12.4-7.6l0.4-1.9l14.4-3l-0.4,2l-4.3,0.8l-1,5.6l3.8,2.2L64.9,196.1z M60.1,191.2l0.8-4.5l-4,0.7  c-1.2,0.2-2.2,0.4-2.9,0.4c0.8,0.3,1.6,0.7,2.4,1.2L60.1,191.2z"></path>	<path class="st2" d="M68.9,177.1L56,172.8l0.9-2.6l10.2,0c0.9,0,1.6,0,2.1,0c-0.4-0.3-1-0.8-1.8-1.4l-7.9-6.1l0.8-2.3l12.9,4.4  l-0.6,1.6l-10.8-3.6l9.5,7.4l-0.5,1.5l-12.2,0l11,3.7L68.9,177.1z"></path>	<path class="st2" d="M76.4,157.3l-12.1-6.1l4.4-8.8l1.4,0.7l-3.6,7.2l3.7,1.9l3.4-6.7l1.4,0.7l-3.4,6.7l4.1,2.1l3.8-7.5l1.4,0.7  L76.4,157.3z"></path>	<path class="st2" d="M84.9,141.5l-11.2-7.7l3.4-5c0.7-1,1.3-1.7,1.9-2.1c0.6-0.4,1.2-0.6,1.9-0.5c0.7,0,1.4,0.3,2,0.7  c0.8,0.5,1.3,1.3,1.5,2.2c0.2,0.9,0,1.9-0.6,3.1c0.5-0.3,0.8-0.4,1.2-0.5c0.7-0.2,1.5-0.2,2.3-0.2l4.4,0.1l-1.3,1.9l-3.4-0.1  c-1,0-1.7,0-2.3,0c-0.5,0-1,0.1-1.3,0.2c-0.3,0.1-0.5,0.3-0.8,0.5c-0.2,0.1-0.4,0.4-0.6,0.8l-1.2,1.7l5,3.4L84.9,141.5z   M79.7,135.7l2.2-3.2c0.5-0.7,0.8-1.3,0.9-1.7c0.1-0.5,0.1-0.9-0.1-1.3c-0.2-0.4-0.4-0.7-0.8-1c-0.5-0.4-1.1-0.5-1.7-0.3  s-1.2,0.6-1.8,1.5l-2.4,3.5L79.7,135.7z"></path>	<path class="st2" d="M96.5,125.9L86.2,117l1.2-1.4l10.3,8.9L96.5,125.9z"></path>	<path class="st2" d="M107.2,108l1.6-0.9c0.7,1.3,1,2.6,0.8,3.9c-0.2,1.2-0.8,2.3-1.8,3.3c-1.1,1-2.1,1.6-3.2,1.8  c-1.1,0.2-2.2,0-3.3-0.5c-1.1-0.5-2.1-1.2-3-2.2c-1-1-1.6-2.1-1.9-3.3c-0.3-1.1-0.3-2.2,0-3.3c0.4-1.1,1-2,1.8-2.9  c1-0.9,2.1-1.5,3.2-1.6c1.2-0.1,2.3,0.1,3.4,0.8l-1,1.5c-0.9-0.5-1.7-0.7-2.5-0.6c-0.7,0.1-1.5,0.4-2.1,1.1  c-0.8,0.7-1.2,1.5-1.4,2.3c-0.2,0.8-0.1,1.7,0.3,2.5s0.9,1.5,1.5,2.2c0.8,0.8,1.6,1.5,2.4,1.9c0.8,0.4,1.7,0.5,2.5,0.3  c0.8-0.2,1.5-0.5,2.1-1.1c0.7-0.7,1.2-1.5,1.3-2.4C108.1,110,107.8,109,107.2,108z"></path>	<path class="st2" d="M116.4,106.4l-3.7-14.1l1.6-1.1l12.5,7.8l-1.7,1.2l-3.7-2.4l-4.6,3.3l1.2,4.2L116.4,106.4z M116.4,99.6  l3.7-2.7l-3.3-2.2c-1-0.7-1.8-1.3-2.4-1.7c0.4,0.8,0.7,1.7,0.9,2.5L116.4,99.6z"></path>	<path class="st2" d="M132.6,95.5l-6.4-12l1.6-0.9l11.3,6.1l-5-9.4l1.5-0.8l6.4,12l-1.6,0.9l-11.3-6.1l5,9.4L132.6,95.5z"></path>	<path class="st2" d="M160.1,83.3l-4.1-13l1.7-0.5l4.1,13L160.1,83.3z"></path>	<path class="st2" d="M170.1,80.5l-2.6-13.3l1.8-0.4l9.1,9.1l-2.1-10.5L178,65l2.6,13.3l-1.8,0.4l-9.1-9.1l2.1,10.5L170.1,80.5z"></path>	<path class="st2" d="M188,73l1.7-0.3c0.1,0.7,0.3,1.2,0.7,1.6s0.8,0.7,1.4,1c0.6,0.2,1.3,0.3,2.1,0.3c0.7,0,1.3-0.2,1.8-0.4  c0.5-0.2,0.9-0.5,1.1-0.9s0.3-0.8,0.3-1.2c0-0.4-0.2-0.8-0.4-1.1c-0.3-0.3-0.7-0.5-1.3-0.7c-0.4-0.1-1.2-0.3-2.5-0.5  c-1.3-0.2-2.2-0.5-2.7-0.7c-0.7-0.3-1.2-0.7-1.5-1.2s-0.5-1-0.6-1.7c0-0.7,0.1-1.3,0.5-2s0.9-1.1,1.6-1.5s1.5-0.6,2.5-0.6  c1-0.1,1.9,0,2.7,0.3c0.8,0.3,1.4,0.7,1.9,1.3s0.7,1.3,0.8,2.1l-1.7,0.2c-0.1-0.9-0.5-1.5-1.1-1.9c-0.6-0.4-1.4-0.6-2.4-0.5  c-1.1,0.1-1.9,0.3-2.3,0.7c-0.5,0.4-0.7,0.9-0.7,1.5c0,0.5,0.2,0.9,0.6,1.2c0.4,0.3,1.3,0.6,2.8,0.8s2.5,0.5,3.1,0.7  c0.8,0.3,1.4,0.7,1.8,1.3c0.4,0.5,0.6,1.2,0.7,1.9c0,0.7-0.1,1.4-0.5,2.1c-0.4,0.7-0.9,1.2-1.7,1.6c-0.8,0.4-1.6,0.6-2.6,0.7  c-1.2,0.1-2.3,0-3.1-0.3c-0.9-0.3-1.5-0.8-2.1-1.5C188.4,74.7,188.1,73.9,188,73z"></path>	<path class="st2" d="M210.3,77l0.8-12l-4.5-0.3l0.1-1.6l10.8,0.7l-0.1,1.6l-4.5-0.3l-0.8,12L210.3,77z"></path>	<path class="st2" d="M224.1,78.5l2.2-13.4l1.8,0.3l-2.2,13.4L224.1,78.5z"></path>	<path class="st2" d="M237.7,81.4l3.1-11.6l-4.3-1.2l0.4-1.5l10.4,2.8l-0.4,1.5l-4.3-1.2l-3.1,11.6L237.7,81.4z"></path>	<path class="st2" d="M264,76.2l1.7,0.7l-3,7.3c-0.5,1.3-1.1,2.2-1.7,2.8c-0.6,0.6-1.4,1-2.3,1.2c-0.9,0.2-2,0-3.2-0.5  c-1.2-0.5-2.1-1.1-2.6-1.8s-0.9-1.5-0.9-2.4c0-0.9,0.3-2,0.8-3.3l3-7.3l1.7,0.7l-3,7.2c-0.5,1.1-0.7,1.9-0.7,2.5s0.2,1.1,0.5,1.6  c0.4,0.5,0.9,0.9,1.6,1.2c1.2,0.5,2.2,0.6,3,0.3s1.5-1.3,2.1-2.9L264,76.2z"></path>	<path class="st2" d="M270.9,94.9l6-10.4l-3.9-2.2l0.8-1.4l9.3,5.4l-0.8,1.4l-3.9-2.3l-6,10.4L270.9,94.9z"></path>	<path class="st2" d="M282.3,102.1l8.2-10.8l7.8,6l-1,1.3l-6.4-4.9l-2.5,3.3l6,4.6l-1,1.3l-6-4.6l-2.8,3.7l6.6,5.1l-1,1.3  L282.3,102.1z"></path>	<path class="st2" d="M308.6,116.3c1.7-1.5,3.5-2.2,5.2-2.1c1.8,0.1,3.3,0.9,4.5,2.3c0.8,1,1.3,2,1.5,3.2c0.2,1.2,0.1,2.3-0.4,3.4  c-0.5,1.1-1.2,2.1-2.3,3c-1,0.9-2.2,1.5-3.4,1.8s-2.3,0.2-3.4-0.2c-1.1-0.4-2-1.1-2.8-2c-0.8-1-1.3-2-1.5-3.2  c-0.2-1.2,0-2.3,0.4-3.4C307,118,307.7,117.1,308.6,116.3z M309.8,117.7c-1.2,1.1-1.9,2.2-2.1,3.5c-0.1,1.3,0.2,2.4,1.1,3.4  c0.9,1,2,1.6,3.3,1.6c1.3,0,2.6-0.5,3.9-1.6c0.8-0.7,1.5-1.5,1.8-2.3c0.4-0.8,0.5-1.7,0.4-2.5c-0.1-0.8-0.5-1.6-1.1-2.3  c-0.8-1-1.9-1.5-3.1-1.7S311.3,116.4,309.8,117.7z"></path>	<path class="st2" d="M316.5,136.8l11.4-7.4l5,7.7l-1.3,0.9l-4-6.2l-3.5,2.3l3.5,5.4l-1.3,0.9l-3.5-5.4l-5.2,3.4L316.5,136.8z"></path>	<path class="st2" d="M333.7,158.8l0.8,1.5c-0.6,0.3-1.1,0.7-1.4,1.1s-0.5,1-0.5,1.7c0,0.7,0.1,1.4,0.4,2.1c0.2,0.6,0.6,1.2,0.9,1.6  c0.4,0.4,0.8,0.7,1.2,0.8c0.4,0.1,0.8,0.1,1.2-0.1c0.4-0.2,0.7-0.4,0.9-0.7s0.3-0.8,0.3-1.4c0-0.4-0.1-1.2-0.3-2.5  c-0.2-1.3-0.2-2.2-0.2-2.8c0.1-0.7,0.3-1.3,0.7-1.8c0.4-0.5,0.8-0.8,1.4-1.1c0.6-0.2,1.3-0.3,2-0.1c0.7,0.1,1.3,0.5,1.9,1.1  c0.6,0.6,1,1.3,1.3,2.2c0.4,0.9,0.5,1.8,0.5,2.7c0,0.8-0.3,1.6-0.7,2.2c-0.4,0.6-1,1.1-1.8,1.4l-0.7-1.6c0.8-0.4,1.3-0.9,1.5-1.6  s0.1-1.5-0.2-2.4c-0.4-1-0.9-1.7-1.4-2c-0.6-0.3-1.1-0.4-1.6-0.2c-0.5,0.2-0.8,0.5-0.9,0.9c-0.2,0.4-0.1,1.4,0.1,2.9  c0.2,1.5,0.3,2.5,0.3,3.1c-0.1,0.9-0.3,1.6-0.7,2.1c-0.4,0.6-0.9,1-1.6,1.2c-0.7,0.3-1.4,0.3-2.1,0.2c-0.7-0.2-1.4-0.5-2-1.1  c-0.6-0.6-1.1-1.3-1.4-2.3c-0.4-1.1-0.6-2.2-0.6-3.1c0-0.9,0.3-1.7,0.8-2.4C332.2,159.6,332.8,159.1,333.7,158.8z"></path>	<path class="st2" d="M336.6,181.3l11.6-2.9l-1.1-4.4l1.6-0.4l2.6,10.5l-1.6,0.4l-1.1-4.4l-11.6,2.9L336.6,181.3z"></path>	<path class="st2" d="M339.4,194.5l13.5-1.5l0.7,6c0.1,1.2,0.1,2.1-0.1,2.8s-0.5,1.2-1.1,1.6c-0.6,0.4-1.2,0.7-2,0.8  c-1,0.1-1.8-0.1-2.5-0.7c-0.7-0.5-1.3-1.5-1.6-2.7c-0.2,0.5-0.4,0.9-0.6,1.2c-0.4,0.6-1,1.1-1.6,1.7l-3.4,2.8l-0.3-2.2l2.6-2.1  c0.8-0.6,1.3-1.1,1.7-1.5c0.4-0.4,0.7-0.7,0.8-1s0.2-0.6,0.3-0.9c0-0.2,0-0.5,0-1l-0.2-2.1l-6,0.7L339.4,194.5z M347.1,195.4  l0.4,3.8c0.1,0.8,0.2,1.4,0.5,1.9c0.2,0.4,0.5,0.8,0.9,1s0.8,0.3,1.3,0.2c0.6-0.1,1.1-0.4,1.5-0.9c0.4-0.5,0.5-1.3,0.4-2.3  l-0.5-4.3L347.1,195.4z"></path>	<path class="st2" d="M340.9,213.4l13.6,0.3l-0.2,9.8l-1.6,0l0.2-8l-4.2-0.1l-0.2,7.5l-1.6,0l0.2-7.5l-4.6-0.1l-0.2,8.3l-1.6,0  L340.9,213.4z"></path>	<path class="st2" d="M344.4,231.4l-0.1,1.7c-0.7,0-1.3,0.1-1.7,0.3s-0.9,0.6-1.2,1.2s-0.6,1.2-0.7,2c-0.1,0.7-0.1,1.3,0,1.8  c0.1,0.5,0.3,1,0.7,1.3c0.3,0.3,0.7,0.5,1.1,0.6c0.4,0.1,0.8,0,1.2-0.2c0.4-0.2,0.7-0.6,1-1.1c0.2-0.3,0.5-1.1,1-2.3  c0.5-1.2,0.9-2,1.2-2.5c0.4-0.6,0.9-1,1.5-1.2c0.5-0.2,1.1-0.3,1.7-0.2c0.7,0.1,1.3,0.4,1.8,0.9s0.9,1.1,1.1,1.9s0.2,1.6,0.1,2.5  c-0.2,1-0.4,1.9-0.9,2.6c-0.4,0.7-1,1.2-1.7,1.5s-1.4,0.4-2.2,0.3l0.1-1.7c0.9,0,1.6-0.2,2.1-0.6c0.5-0.5,0.8-1.2,1-2.2  c0.2-1.1,0.1-1.9-0.2-2.4s-0.8-0.9-1.3-1c-0.5-0.1-0.9,0-1.3,0.3c-0.4,0.3-0.8,1.1-1.4,2.5c-0.5,1.4-1,2.3-1.3,2.8  c-0.5,0.7-1,1.2-1.6,1.5c-0.6,0.3-1.3,0.4-2,0.3c-0.7-0.1-1.4-0.4-1.9-0.9c-0.6-0.5-1-1.2-1.2-2c-0.2-0.8-0.3-1.7-0.1-2.7  c0.2-1.2,0.5-2.2,1-3c0.5-0.8,1.1-1.3,1.9-1.7S343.5,231.3,344.4,231.4z"></path>	<path class="st2" d="M341.2,249.7l-0.3,1.7c-0.7-0.1-1.3-0.1-1.8,0.1c-0.5,0.2-1,0.5-1.4,1c-0.4,0.5-0.8,1.2-1,1.9  c-0.2,0.7-0.3,1.3-0.2,1.8c0.1,0.6,0.2,1,0.5,1.4c0.3,0.3,0.6,0.6,1,0.7c0.4,0.1,0.8,0.1,1.2,0c0.4-0.1,0.7-0.5,1.1-1  c0.2-0.3,0.7-1,1.3-2.1s1.1-1.9,1.5-2.3c0.5-0.5,1-0.9,1.6-1c0.6-0.2,1.2-0.2,1.8,0c0.7,0.2,1.2,0.6,1.7,1.1c0.5,0.5,0.7,1.2,0.8,2  c0.1,0.8,0,1.6-0.2,2.5c-0.3,1-0.7,1.8-1.2,2.4c-0.5,0.7-1.1,1.1-1.9,1.3s-1.5,0.2-2.2,0l0.4-1.7c0.9,0.1,1.6,0,2.1-0.4  c0.6-0.4,1-1.1,1.3-2.1c0.3-1,0.3-1.9,0.1-2.5c-0.2-0.6-0.6-1-1.2-1.1c-0.5-0.1-0.9-0.1-1.3,0.2c-0.4,0.2-1,1-1.7,2.3  s-1.3,2.2-1.7,2.7c-0.6,0.7-1.2,1.1-1.8,1.3c-0.6,0.2-1.3,0.2-2,0c-0.7-0.2-1.3-0.6-1.8-1.2c-0.5-0.6-0.8-1.3-0.9-2.1  c-0.1-0.8-0.1-1.7,0.2-2.7c0.3-1.2,0.8-2.1,1.4-2.8c0.6-0.7,1.3-1.2,2.1-1.4S340.3,249.5,341.2,249.7z"></path></g><g>	<path class="st2" d="M93.6,323.3l9-9.2l6.7,6.6l-1.1,1.1l-5.5-5.4l-2.8,2.8l5.1,5l-1.1,1.1l-5.1-5l-3.1,3.1l5.7,5.6l-1.1,1.1  L93.6,323.3z"></path>	<path class="st2" d="M108.4,331.5l1.4,0.9c-0.3,0.6-0.5,1.1-0.6,1.6c0,0.5,0.1,1,0.4,1.6c0.3,0.6,0.8,1.1,1.3,1.5  c0.5,0.4,1,0.7,1.5,0.8c0.5,0.2,1,0.2,1.4,0.1c0.4-0.1,0.7-0.3,1-0.6c0.2-0.3,0.4-0.7,0.4-1.1s-0.2-0.8-0.5-1.3  c-0.2-0.3-0.7-1-1.4-1.9c-0.8-1-1.3-1.7-1.5-2.2c-0.3-0.6-0.4-1.2-0.4-1.8c0.1-0.6,0.3-1.1,0.6-1.5c0.4-0.5,0.9-0.9,1.6-1.1  c0.6-0.2,1.3-0.2,2.1,0c0.7,0.2,1.5,0.6,2.1,1.1c0.8,0.6,1.3,1.2,1.7,1.9c0.4,0.7,0.6,1.4,0.5,2.1c-0.1,0.7-0.3,1.4-0.7,2l-1.4-0.9  c0.4-0.7,0.6-1.4,0.4-2s-0.6-1.3-1.4-1.9c-0.8-0.6-1.5-1-2.1-0.9s-1.1,0.2-1.4,0.6c-0.3,0.4-0.4,0.8-0.3,1.2  c0.1,0.4,0.6,1.2,1.5,2.3c0.9,1.1,1.5,1.9,1.8,2.4c0.4,0.7,0.6,1.4,0.5,2.1c0,0.6-0.3,1.2-0.7,1.8c-0.4,0.5-1,0.9-1.7,1.2  s-1.4,0.3-2.2,0.1s-1.6-0.6-2.3-1.1c-0.9-0.7-1.6-1.5-2-2.2c-0.4-0.8-0.6-1.5-0.5-2.4S107.9,332.2,108.4,331.5z"></path>	<path class="st2" d="M123.1,347.1l5.9-9.7l-3.6-2.2l0.8-1.3l8.8,5.4l-0.8,1.3l-3.7-2.2l-5.9,9.7L123.1,347.1z"></path>	<path class="st2" d="M131.9,352.2l10-9.5l1.7,0.8l-0.8,13.9l-1.8-0.8l0.3-4.2l-4.9-2.3l-3,2.9L131.9,352.2z M137.6,349.1l4,1.9  l0.3-3.8c0.1-1.2,0.2-2.1,0.3-2.8c-0.5,0.7-1.1,1.3-1.7,1.9L137.6,349.1z"></path>	<path class="st2" d="M149,359.9l4.2-12.2l4.6,1.6c0.9,0.3,1.6,0.7,2.1,1.1c0.5,0.4,0.8,1,0.9,1.6c0.1,0.6,0.1,1.2-0.1,1.8  c-0.2,0.5-0.5,1-0.9,1.3s-1,0.6-1.7,0.7c0.7,0.5,1.1,1,1.3,1.7c0.2,0.7,0.2,1.3,0,2.1c-0.2,0.6-0.5,1.1-0.9,1.5  c-0.4,0.4-0.8,0.7-1.3,0.8s-1,0.2-1.5,0.1c-0.6,0-1.3-0.2-2-0.5L149,359.9z M151.1,359l3.1,1c0.5,0.2,0.9,0.3,1.1,0.3  c0.4,0.1,0.7,0.1,1.1,0s0.6-0.2,0.9-0.5c0.3-0.2,0.5-0.6,0.6-0.9c0.2-0.5,0.2-0.9,0.1-1.3s-0.4-0.8-0.7-1c-0.4-0.3-0.9-0.5-1.7-0.8  l-2.8-1L151.1,359z M153,353.4l2.7,0.9c0.7,0.2,1.3,0.4,1.6,0.4c0.5,0,0.8-0.1,1.1-0.3c0.3-0.2,0.5-0.5,0.7-1  c0.1-0.4,0.2-0.8,0.1-1.2c-0.1-0.4-0.3-0.7-0.6-0.9c-0.3-0.2-0.9-0.5-1.8-0.8l-2.5-0.8L153,353.4z"></path>	<path class="st2" d="M165.5,365l2.8-12.6l1.7,0.4l-2.5,11.1l6.2,1.4l-0.3,1.5L165.5,365z"></path>	<path class="st2" d="M180.7,367.9l1.7-12.8l1.7,0.2l-1.7,12.8L180.7,367.9z"></path>	<path class="st2" d="M190.1,364.9l1.6-0.1c0,0.6,0.2,1.2,0.5,1.6c0.3,0.4,0.7,0.8,1.3,1.1c0.6,0.3,1.2,0.4,2,0.5  c0.7,0,1.2,0,1.7-0.2s0.9-0.4,1.2-0.7c0.3-0.3,0.4-0.7,0.4-1.1c0-0.4-0.1-0.8-0.3-1.1c-0.2-0.3-0.6-0.6-1.1-0.8  c-0.3-0.2-1.1-0.4-2.3-0.7c-1.2-0.3-2-0.6-2.5-0.9c-0.6-0.3-1-0.8-1.3-1.3c-0.3-0.5-0.4-1-0.4-1.6c0-0.7,0.2-1.2,0.6-1.8  c0.4-0.5,1-1,1.7-1.2s1.5-0.4,2.4-0.3c1,0,1.8,0.2,2.5,0.6s1.3,0.8,1.6,1.4c0.4,0.6,0.5,1.3,0.5,2.1l-1.6,0  c-0.1-0.8-0.3-1.4-0.8-1.9c-0.5-0.4-1.2-0.7-2.2-0.7c-1,0-1.8,0.1-2.3,0.5c-0.5,0.4-0.7,0.8-0.8,1.3c0,0.5,0.1,0.9,0.5,1.2  c0.3,0.3,1.2,0.7,2.5,1c1.4,0.4,2.3,0.7,2.8,0.9c0.7,0.4,1.3,0.8,1.6,1.4s0.5,1.2,0.5,1.9c0,0.7-0.3,1.3-0.7,1.9  c-0.4,0.6-1,1-1.8,1.3c-0.8,0.3-1.6,0.4-2.5,0.4c-1.2-0.1-2.1-0.3-2.9-0.6c-0.8-0.4-1.4-0.9-1.8-1.6  C190.3,366.5,190.1,365.7,190.1,364.9z"></path>	<path class="st2" d="M207.9,369.3l-0.9-12.9l1.7-0.1l0.4,5.3l6.7-0.5l-0.4-5.3l1.7-0.1l0.9,12.9l-1.7,0.1l-0.4-6.1l-6.7,0.5  l0.4,6.1L207.9,369.3z"></path>	<path class="st2" d="M226.2,367.5l-2.5-12.6l9.2-1.8l0.3,1.5l-7.5,1.5l0.8,3.9l7-1.4l0.3,1.5l-7,1.4l0.8,4.3l7.8-1.5l0.3,1.5  L226.2,367.5z"></path>	<path class="st2" d="M243.1,363.7l-4-12.3l4.2-1.4c1-0.3,1.7-0.5,2.3-0.5c0.8-0.1,1.5,0,2.1,0.3c0.8,0.3,1.5,0.9,2.1,1.6  c0.6,0.7,1.1,1.7,1.4,2.8c0.3,0.9,0.5,1.8,0.5,2.6c0,0.8-0.1,1.5-0.3,2.1c-0.2,0.6-0.4,1.1-0.8,1.5c-0.3,0.4-0.7,0.8-1.3,1.1  c-0.5,0.3-1.2,0.6-1.9,0.8L243.1,363.7z M244.3,361.8l2.6-0.8c0.8-0.3,1.4-0.5,1.8-0.8s0.7-0.6,0.9-1c0.3-0.5,0.4-1.1,0.4-1.8  c0-0.7-0.1-1.5-0.4-2.5c-0.4-1.3-0.9-2.2-1.6-2.8c-0.6-0.6-1.3-0.8-2-0.9c-0.5,0-1.2,0.1-2.2,0.4l-2.6,0.8L244.3,361.8z"></path>	<path class="st2" d="M274.1,350.9l-1.4,0.8l-4.8-8.9c-0.2,0.5-0.4,1.1-0.8,1.7c-0.4,0.6-0.7,1.1-1.1,1.5l-0.7-1.3  c0.6-0.8,1-1.6,1.3-2.4c0.3-0.8,0.5-1.6,0.4-2.2l0.9-0.5L274.1,350.9z"></path>	<path class="st2" d="M280,344l1.2-1c0.5,0.5,1,0.8,1.5,0.9c0.5,0.1,1-0.1,1.4-0.4c0.4-0.3,0.7-0.6,0.9-1c0.2-0.4,0.3-0.8,0.3-1.2  c0-0.4-0.1-1-0.3-1.6c-0.2-0.6-0.5-1.2-0.9-1.7c0-0.1-0.1-0.1-0.2-0.3c0,0.6-0.1,1.2-0.4,1.7c-0.3,0.6-0.7,1-1.2,1.4  c-0.9,0.6-1.9,0.8-2.9,0.5c-1-0.2-1.9-0.9-2.6-1.9c-0.7-1.1-1-2.2-0.8-3.3c0.2-1.1,0.8-2,1.8-2.6c0.7-0.5,1.5-0.7,2.3-0.7  s1.6,0.2,2.4,0.7c0.8,0.5,1.6,1.4,2.5,2.7c0.9,1.4,1.5,2.6,1.7,3.6c0.2,1,0.2,1.9-0.1,2.7c-0.3,0.8-0.9,1.5-1.7,2  c-0.8,0.6-1.7,0.8-2.5,0.7C281.4,345.2,280.6,344.8,280,344z M282.2,335.7c-0.5-0.8-1.1-1.2-1.8-1.4c-0.7-0.2-1.3-0.1-1.9,0.3  c-0.6,0.4-0.9,1-1.1,1.7c-0.1,0.8,0.1,1.5,0.6,2.3c0.5,0.7,1,1.1,1.7,1.2c0.7,0.2,1.4,0,2-0.4c0.6-0.4,1-1,1.1-1.6  C282.9,337.2,282.7,336.4,282.2,335.7z"></path>	<path class="st2" d="M286.9,329.2l-1-1.2l6.5-5.3l0.8,0.9c-0.1,1.2,0,2.6,0.3,4.2c0.3,1.6,0.8,3.2,1.4,4.6c0.4,1,1,2.1,1.8,3.1  l-1.3,1c-0.6-0.8-1.3-1.9-1.9-3.2c-0.6-1.4-1.1-2.8-1.4-4.3c-0.3-1.5-0.4-2.8-0.4-4.1L286.9,329.2z"></path>	<path class="st2" d="M302.2,321.3c-0.6,0.3-1.2,0.4-1.8,0.3c-0.5-0.1-1-0.3-1.5-0.8c-0.7-0.7-1-1.5-1-2.4c0-0.9,0.4-1.8,1.2-2.6  c0.8-0.8,1.7-1.2,2.6-1.3c0.9,0,1.8,0.3,2.4,0.9c0.4,0.4,0.7,0.9,0.8,1.4c0.1,0.5,0,1.1-0.3,1.7c0.7-0.4,1.5-0.5,2.2-0.4  c0.7,0.1,1.3,0.4,1.9,1c0.8,0.8,1.2,1.7,1.2,2.8c0,1.1-0.5,2.1-1.4,3c-0.9,0.9-1.9,1.4-3,1.4c-1.1,0-2-0.3-2.8-1.1  c-0.6-0.6-0.9-1.2-1-1.9S301.8,322,302.2,321.3z M300.1,319.6c0.4,0.4,0.9,0.6,1.5,0.6c0.6,0,1.1-0.2,1.5-0.7  c0.4-0.4,0.6-0.9,0.6-1.5s-0.2-1-0.6-1.4c-0.4-0.4-0.9-0.6-1.5-0.6c-0.6,0-1.1,0.2-1.5,0.7c-0.4,0.4-0.6,0.9-0.6,1.5  C299.5,318.8,299.7,319.2,300.1,319.6z M303.9,324.1c0.3,0.3,0.7,0.5,1.2,0.7c0.5,0.1,0.9,0.1,1.4,0s0.9-0.4,1.2-0.7  c0.5-0.5,0.8-1.2,0.8-1.9s-0.3-1.3-0.8-1.8c-0.5-0.5-1.2-0.8-1.9-0.8c-0.7,0-1.3,0.3-1.9,0.8c-0.5,0.5-0.8,1.1-0.8,1.8  S303.4,323.6,303.9,324.1z"></path></g><path class="st3" d="M135,288.7c-10.8,0-18.2-2.9-21.5-8.6c-11.2-19.5,29.4-58.4,75.3-84.9c24.6-14.2,49.5-24.5,70.2-29 c21.4-4.6,35.9-2.4,40.9,6.2c5,8.7-0.4,22.3-15.1,38.6c-14.2,15.7-35.6,32.1-60.2,46.3c-24.6,14.2-49.5,24.5-70.2,29 C147.1,287.9,140.6,288.7,135,288.7z M278.5,167.8c-5.3,0-11.6,0.8-18.7,2.3c-20.3,4.4-44.8,14.5-69.1,28.5 c-48.6,28.1-82.4,64.5-73.8,79.4c4,6.9,17.3,8.5,36.6,4.3c20.3-4.4,44.8-14.5,69.1-28.5c24.3-14,45.3-30.2,59.2-45.5 c13.2-14.6,18.6-27,14.6-33.9C293.9,170.1,287.6,167.8,278.5,167.8z"></path><path class="st3" d="M269.8,259.5c-0.9-0.2-1.8-0.4-2.7-0.7c-2.6-0.8-4.1-1.4-5.5-2.6c-3.4-3.1-4.4-7-5.2-10.5 c-0.2-0.7-0.3-1.9-0.3-2.2c-19.2,11.9-47.2,24.3-64.7,30.3l1.3-2.1l17.6-8.8l33-18.9l3.2-2.5c2.8-1.6,5.4-3.3,8.1-4.9 c-0.4-5.2,0.3-10,3-14.9c3.8-6.7,7.1-13.6,8.8-21.3c0.5-2.2,0.9-4.4,1.3-6.6c1.6-8.1,2.2-16.5,0.5-24.5c-2.4-11.1-5-22.4-13.3-30.9 c-1-1.1-1.9-2.3-3-3.3c-6-5.6-12.8-9.7-20.3-12.4c-9.1-3.4-18.4-5.6-28.1-4.9c-14.1,1.1-27.5,5.1-39.2,13.7 c-9.3,6.8-16.5,15.4-19.7,27.1c-1.5,5.5-3,11-4.3,16.6c-0.9,3.7-0.5,7.1,2.2,10.2c2.1,2.4,3.7,5.4,2,8.9c-3.5,7.2-6.2,14.8-10,21.8 c-1.8,3.2,0,7.3,3.4,8.4c2.1,0.7,4.1,1.5,6,2.4c1.7,0.8,2.4,2.1,2,4.2c-0.3,1.7-1.2,3.1-1.7,4.6c-0.9,3-0.6,4,2.1,5.6 c0.9,0.5,0.9,1.1,0.4,2c-1.8,3.5-1.8,3.7,1.4,6.2c1,0.8,1.3,1.6,1,2.7c-0.2,1-0.6,1.9-0.9,2.8c-1.5,5.6-1.3,9.7,4.3,12.3 c2.6,1.2,5.4,1.5,8.3,1.3c6.1-0.5,12-1.6,17.8-3.6c1.8-0.6,2.9,0.3,3.7,1.8c0.5,1.1,0.8,2.2,1.2,3.4c1.2,4,2.1,8,3.5,11.9 c1.7,4.9,1.3,9.5,0,14.5c-3,11.9-11.9,18.7-14,20.6c-0.4,0.4-0.2,1.1,0.4,1.1c28.7,1.1,50.8-24.4,54.5-27.9 c9.4-8.9,21.7-22.3,42-29.9C270.5,260.5,270.4,259.6,269.8,259.5z"></path><circle class="st4" cx="297.4" cy="173.7" r="6.7"></circle><path class="st2" d="M431.1,196.7v-52.5h-18.8v-10.7h50.2v10.7h-18.7v52.5H431.1z"></path><path class="st2" d="M481.6,133.5v23.2c3.9-4.6,8.6-6.9,14-6.9c2.8,0,5.3,0.5,7.5,1.6s3.9,2.4,5.1,4c1.1,1.6,1.9,3.4,2.3,5.3 c0.4,2,0.6,5,0.6,9.1v26.9H499v-24.2c0-4.8-0.2-7.8-0.7-9.1c-0.5-1.3-1.3-2.3-2.4-3.1c-1.2-0.8-2.6-1.1-4.4-1.1 c-2,0-3.8,0.5-5.4,1.5c-1.6,1-2.7,2.5-3.5,4.4c-0.7,2-1.1,4.9-1.1,8.7v22.9h-12.1v-63.2H481.6z"></path><path class="st2" d="M548.8,182.2l12.1,2c-1.6,4.4-4,7.8-7.4,10.1c-3.3,2.3-7.5,3.5-12.6,3.5c-8,0-13.9-2.6-17.7-7.8 c-3-4.2-4.5-9.4-4.5-15.8c0-7.6,2-13.5,5.9-17.8c4-4.3,9-6.4,15-6.4c6.8,0,12.2,2.2,16.1,6.7c3.9,4.5,5.8,11.4,5.6,20.7h-30.4 c0.1,3.6,1.1,6.4,2.9,8.4c1.9,2,4.2,3,7,3c1.9,0,3.5-0.5,4.8-1.6C547.1,186.1,548.1,184.5,548.8,182.2z M549.5,169.9 c-0.1-3.5-1-6.2-2.7-8c-1.7-1.8-3.8-2.7-6.3-2.7c-2.6,0-4.8,1-6.6,2.9c-1.7,1.9-2.6,4.5-2.5,7.8H549.5z"></path><path class="st2" d="M674.7,196.7h-20.4l-8.1-21.1h-37.1l-7.7,21.1h-19.9l36.1-92.7h19.8L674.7,196.7z M640.2,160.1l-12.8-34.4 l-12.5,34.4H640.2z"></path><path class="st2" d="M680.8,129.6h16.4v9.2c5.9-7.1,12.8-10.7,20.9-10.7c4.3,0,8,0.9,11.2,2.7c3.2,1.8,5.8,4.4,7.8,8 c3-3.6,6.1-6.3,9.5-8c3.4-1.8,7.1-2.7,10.9-2.7c4.9,0,9.1,1,12.5,3c3.4,2,6,4.9,7.7,8.8c1.2,2.9,1.8,7.5,1.8,13.9v42.9h-17.8v-38.4 c0-6.7-0.6-11-1.8-12.9c-1.6-2.5-4.2-3.8-7.6-3.8c-2.5,0-4.8,0.8-7,2.3c-2.2,1.5-3.8,3.7-4.7,6.7c-1,2.9-1.5,7.6-1.5,13.9v32.2 h-17.8v-36.8c0-6.5-0.3-10.7-0.9-12.6c-0.6-1.9-1.6-3.3-2.9-4.2c-1.3-0.9-3.1-1.4-5.4-1.4c-2.7,0-5.2,0.7-7.4,2.2 c-2.2,1.5-3.8,3.6-4.7,6.4c-0.9,2.8-1.4,7.4-1.4,13.8v32.6h-17.8V129.6z"></path><path class="st2" d="M836.1,175.4l17.7,3c-2.3,6.5-5.9,11.4-10.8,14.8c-4.9,3.4-11.1,5.1-18.4,5.1c-11.7,0-20.3-3.8-25.9-11.4 c-4.4-6.1-6.6-13.8-6.6-23.1c0-11.1,2.9-19.8,8.7-26.1c5.8-6.3,13.2-9.5,22.1-9.5c10,0,17.9,3.3,23.6,9.9c5.8,6.6,8.5,16.7,8.3,30.3 h-44.5c0.1,5.3,1.6,9.4,4.3,12.3c2.7,2.9,6.2,4.4,10.2,4.4c2.8,0,5.1-0.8,7-2.3S835.2,178.7,836.1,175.4z M837.2,157.4 c-0.1-5.1-1.5-9.1-4-11.7c-2.5-2.7-5.6-4-9.2-4c-3.9,0-7.1,1.4-9.6,4.2c-2.5,2.8-3.8,6.7-3.7,11.5H837.2z"></path><path class="st2" d="M886.3,196.7h-17.8v-67.2H885v9.5c2.8-4.5,5.4-7.5,7.6-8.9c2.3-1.4,4.8-2.1,7.7-2.1c4,0,7.9,1.1,11.7,3.4 l-5.5,15.5c-3-1.9-5.8-2.9-8.3-2.9c-2.5,0-4.6,0.7-6.3,2.1c-1.7,1.4-3.1,3.8-4.1,7.4c-1,3.6-1.5,11.1-1.5,22.5V196.7z"></path><path class="st2" d="M919.7,120.5V104h17.8v16.4H919.7z M919.7,196.7v-67.2h17.8v67.2H919.7z"></path><path class="st2" d="M1011.9,149.4l-17.5,3.2c-0.6-3.5-1.9-6.1-4-7.9c-2.1-1.8-4.8-2.7-8.1-2.7c-4.4,0-8,1.5-10.6,4.6 c-2.6,3.1-4,8.2-4,15.3c0,8,1.3,13.6,4,16.9c2.7,3.3,6.3,4.9,10.8,4.9c3.4,0,6.1-1,8.3-2.9c2.1-1.9,3.7-5.2,4.6-9.9l17.5,3 c-1.8,8-5.3,14.1-10.4,18.1c-5.1,4.1-12,6.1-20.7,6.1c-9.8,0-17.7-3.1-23.5-9.3c-5.8-6.2-8.8-14.8-8.8-25.7 c0-11.1,2.9-19.7,8.8-25.9c5.9-6.2,13.8-9.3,23.8-9.3c8.2,0,14.7,1.8,19.5,5.3C1006.3,136.9,1009.8,142.2,1011.9,149.4z"></path><path class="st2" d="M1038.6,150.1l-16.1-2.9c1.8-6.5,4.9-11.3,9.4-14.4c4.4-3.1,11-4.7,19.7-4.7c7.9,0,13.8,0.9,17.7,2.8 c3.9,1.9,6.6,4.3,8.2,7.1c1.6,2.9,2.4,8.2,2.4,15.9l-0.2,20.7c0,5.9,0.3,10.3,0.9,13.1c0.6,2.8,1.6,5.8,3.2,9h-17.6 c-0.5-1.2-1-2.9-1.7-5.2c-0.3-1.1-0.5-1.7-0.6-2.1c-3,3-6.3,5.2-9.7,6.6c-3.5,1.5-7.1,2.2-11.1,2.2c-6.9,0-12.4-1.9-16.3-5.6 c-4-3.8-6-8.5-6-14.2c0-3.8,0.9-7.2,2.7-10.1c1.8-3,4.4-5.2,7.6-6.8c3.3-1.6,8-3,14.1-4.1c8.3-1.6,14.1-3,17.3-4.4v-1.8 c0-3.4-0.8-5.8-2.5-7.3c-1.7-1.5-4.9-2.2-9.5-2.2c-3.2,0-5.6,0.6-7.4,1.9C1041.1,144.8,1039.7,147,1038.6,150.1z M1062.4,164.5 c-2.3,0.8-5.9,1.7-10.8,2.7c-4.9,1.1-8.2,2.1-9.7,3.1c-2.3,1.6-3.5,3.7-3.5,6.3c0,2.5,0.9,4.6,2.8,6.4c1.9,1.8,4.2,2.7,7.1,2.7 c3.2,0,6.3-1.1,9.2-3.2c2.2-1.6,3.6-3.6,4.2-5.9c0.5-1.5,0.7-4.4,0.7-8.7V164.5z"></path><path class="st2" d="M1158.4,196.7h-17.8v-34.3c0-7.3-0.4-11.9-1.1-14.1c-0.8-2.1-2-3.8-3.7-5c-1.7-1.2-3.8-1.8-6.2-1.8 c-3.1,0-5.8,0.8-8.3,2.5c-2.4,1.7-4.1,3.9-5,6.7c-0.9,2.8-1.4,7.9-1.4,15.4v30.4h-17.8v-67.2h16.5v9.9c5.9-7.6,13.2-11.4,22.1-11.4 c3.9,0,7.5,0.7,10.7,2.1c3.2,1.4,5.7,3.2,7.4,5.4c1.7,2.2,2.8,4.7,3.5,7.5c0.7,2.8,1,6.8,1,12V196.7z"></path><path class="st2" d="M420.3,310.9v-92.7H439v92.7H420.3z"></path><path class="st2" d="M517.8,310.9H500v-34.3c0-7.3-0.4-11.9-1.1-14.1c-0.8-2.1-2-3.8-3.7-5c-1.7-1.2-3.8-1.8-6.2-1.8 c-3.1,0-5.8,0.8-8.3,2.5c-2.4,1.7-4.1,3.9-5,6.7c-0.9,2.8-1.4,7.9-1.4,15.4v30.4h-17.8v-67.2h16.5v9.9c5.9-7.6,13.2-11.4,22.1-11.4 c3.9,0,7.5,0.7,10.7,2.1c3.2,1.4,5.7,3.2,7.4,5.4c1.7,2.2,2.8,4.7,3.5,7.5c0.7,2.8,1,6.8,1,12V310.9z"></path><path class="st2" d="M528.3,291.8l17.8-2.7c0.8,3.5,2.3,6.1,4.6,7.9c2.3,1.8,5.6,2.7,9.7,2.7c4.6,0,8.1-0.8,10.4-2.5 c1.6-1.2,2.3-2.8,2.3-4.7c0-1.3-0.4-2.5-1.3-3.4c-0.9-0.8-2.9-1.6-5.9-2.3c-14.3-3.2-23.4-6-27.3-8.7c-5.3-3.6-8-8.7-8-15.1 c0-5.8,2.3-10.7,6.9-14.7c4.6-4,11.7-5.9,21.4-5.9c9.2,0,16,1.5,20.5,4.5c4.5,3,7.5,7.4,9.2,13.3l-16.8,3.1c-0.7-2.6-2.1-4.6-4.1-6 c-2-1.4-4.9-2.1-8.6-2.1c-4.7,0-8,0.7-10.1,2c-1.3,0.9-2,2.1-2,3.6c0,1.3,0.6,2.3,1.8,3.2c1.6,1.2,7.1,2.8,16.6,5 c9.5,2.1,16.1,4.8,19.8,7.9c3.7,3.2,5.6,7.6,5.6,13.2c0,6.2-2.6,11.4-7.7,15.9c-5.1,4.4-12.8,6.6-22.8,6.6c-9.1,0-16.4-1.9-21.7-5.6 C533.5,303.2,530,298.1,528.3,291.8z"></path><path class="st2" d="M636.2,243.8v14.2h-12.1V285c0,5.5,0.1,8.7,0.3,9.6c0.2,0.9,0.8,1.7,1.6,2.2c0.8,0.6,1.8,0.9,3,0.9 c1.6,0,4-0.6,7.1-1.7l1.5,13.8c-4.1,1.8-8.8,2.7-14,2.7c-3.2,0-6.1-0.5-8.7-1.6c-2.6-1.1-4.5-2.5-5.7-4.2c-1.2-1.7-2-4-2.5-6.9 c-0.4-2.1-0.6-6.2-0.6-12.5v-29.3h-8.2v-14.2h8.2v-13.3l17.8-10.4v23.7H636.2z"></path><path class="st2" d="M648.6,234.7v-16.4h17.8v16.4H648.6z M648.6,310.9v-67.2h17.8v67.2H648.6z"></path><path class="st2" d="M715.4,243.8v14.2h-12.1V285c0,5.5,0.1,8.7,0.3,9.6c0.2,0.9,0.8,1.7,1.6,2.2c0.8,0.6,1.8,0.9,3,0.9 c1.6,0,4-0.6,7.1-1.7l1.5,13.8c-4.1,1.8-8.8,2.7-14,2.7c-3.2,0-6.1-0.5-8.7-1.6c-2.6-1.1-4.5-2.5-5.7-4.2c-1.2-1.7-2-4-2.5-6.9 c-0.4-2.1-0.6-6.2-0.6-12.5v-29.3h-8.2v-14.2h8.2v-13.3l17.8-10.4v23.7H715.4z"></path><path class="st2" d="M771.9,310.9v-10.1c-2.4,3.6-5.7,6.4-9.6,8.5c-4,2.1-8.2,3.1-12.6,3.1c-4.5,0-8.6-1-12.1-3 c-3.6-2-6.2-4.8-7.8-8.3c-1.6-3.6-2.4-8.5-2.4-14.9v-42.5h17.8v30.9c0,9.4,0.3,15.2,1,17.4c0.7,2.1,1.8,3.8,3.6,5.1 c1.7,1.2,3.9,1.9,6.6,1.9c3,0,5.8-0.8,8.2-2.5c2.4-1.7,4-3.7,4.9-6.2c0.9-2.5,1.3-8.5,1.3-18.1v-28.3h17.8v67.2H771.9z"></path><path class="st2" d="M837.6,243.8v14.2h-12.1V285c0,5.5,0.1,8.7,0.3,9.6c0.2,0.9,0.8,1.7,1.6,2.2c0.8,0.6,1.8,0.9,3,0.9 c1.6,0,4-0.6,7.1-1.7l1.5,13.8c-4.1,1.8-8.8,2.7-14,2.7c-3.2,0-6.1-0.5-8.7-1.6c-2.6-1.1-4.5-2.5-5.7-4.2c-1.2-1.7-2-4-2.5-6.9 c-0.4-2.1-0.6-6.2-0.6-12.5v-29.3h-8.2v-14.2h8.2v-13.3l17.8-10.4v23.7H837.6z"></path><path class="st2" d="M888.8,289.6l17.7,3c-2.3,6.5-5.9,11.4-10.8,14.8c-4.9,3.4-11.1,5.1-18.4,5.1c-11.7,0-20.3-3.8-25.9-11.4 c-4.4-6.1-6.6-13.8-6.6-23.1c0-11.1,2.9-19.8,8.7-26.1c5.8-6.3,13.2-9.5,22.1-9.5c10,0,17.9,3.3,23.6,9.9c5.8,6.6,8.5,16.7,8.3,30.3 h-44.5c0.1,5.3,1.6,9.4,4.3,12.3c2.7,2.9,6.2,4.4,10.2,4.4c2.8,0,5.1-0.8,7-2.3C886.4,295.4,887.8,292.9,888.8,289.6z M889.8,271.6 c-0.1-5.1-1.5-9.1-4-11.7c-2.5-2.7-5.6-4-9.2-4c-3.9,0-7.1,1.4-9.6,4.2c-2.5,2.8-3.8,6.7-3.7,11.5H889.8z"></path><path class="st2" d="M932.1,287.4c0-4,1-7.9,3-11.7c2-3.8,4.8-6.6,8.4-8.6c3.6-2,7.7-3,12.2-3c6.9,0,12.6,2.2,17,6.7 c4.4,4.5,6.6,10.2,6.6,17.1c0,6.9-2.2,12.7-6.7,17.2c-4.5,4.6-10.1,6.8-16.9,6.8c-4.2,0-8.2-0.9-12-2.8c-3.8-1.9-6.7-4.7-8.7-8.3 C933.1,297.1,932.1,292.7,932.1,287.4z M944.6,288c0,4.5,1.1,8,3.2,10.4c2.2,2.4,4.8,3.6,8,3.6c3.2,0,5.8-1.2,8-3.6 c2.1-2.4,3.2-5.9,3.2-10.5c0-4.5-1.1-7.9-3.2-10.3c-2.1-2.4-4.8-3.6-8-3.6c-3.2,0-5.8,1.2-8,3.6C945.6,280,944.6,283.5,944.6,288z"></path><path class="st2" d="M982.4,265.2h6.7v-3.4c0-3.9,0.4-6.7,1.2-8.6c0.8-1.9,2.3-3.4,4.5-4.6c2.2-1.2,5-1.8,8.3-1.8 c3.4,0,6.8,0.5,10.1,1.6l-1.6,8.5c-1.9-0.5-3.8-0.7-5.6-0.7c-1.8,0-3,0.4-3.8,1.2c-0.8,0.8-1.1,2.4-1.1,4.7v3.2h9.1v9.5h-9.1v36.3 h-12.1v-36.3h-6.7V265.2z"></path><path class="st2" d="M1033.8,280.8l18.2-1.8c1.1,6.1,3.3,10.6,6.7,13.5c3.4,2.9,7.9,4.3,13.6,4.3c6,0,10.6-1.3,13.6-3.8 c3.1-2.6,4.6-5.5,4.6-8.9c0-2.2-0.6-4.1-1.9-5.6c-1.3-1.5-3.5-2.9-6.7-4c-2.2-0.8-7.2-2.1-15-4c-10-2.5-17.1-5.5-21.1-9.2 c-5.7-5.1-8.5-11.3-8.5-18.7c0-4.7,1.3-9.1,4-13.2c2.7-4.1,6.5-7.2,11.6-9.4c5-2.1,11.1-3.2,18.2-3.2c11.6,0,20.4,2.6,26.3,7.7 c5.9,5.1,9,11.9,9.3,20.4l-18.7,0.8c-0.8-4.8-2.5-8.2-5.2-10.3c-2.6-2.1-6.6-3.1-11.9-3.1c-5.4,0-9.7,1.1-12.8,3.4 c-2,1.4-3,3.4-3,5.8c0,2.2,0.9,4.1,2.8,5.6c2.4,2,8.1,4,17.2,6.2c9.1,2.1,15.8,4.4,20.2,6.7c4.4,2.3,7.8,5.4,10.2,9.4 c2.5,4,3.7,8.9,3.7,14.8c0,5.3-1.5,10.3-4.4,14.9c-3,4.6-7.1,8.1-12.5,10.3c-5.4,2.3-12.1,3.4-20.2,3.4c-11.7,0-20.7-2.7-27-8.1 C1038.7,299,1035,291.1,1033.8,280.8z"></path><path class="st2" d="M1153.2,243.8v14.2h-12.1V285c0,5.5,0.1,8.7,0.3,9.6c0.2,0.9,0.8,1.7,1.6,2.2c0.8,0.6,1.8,0.9,3,0.9 c1.6,0,4-0.6,7.1-1.7l1.5,13.8c-4.1,1.8-8.8,2.7-14,2.7c-3.2,0-6.1-0.5-8.7-1.6c-2.6-1.1-4.5-2.5-5.7-4.2c-1.2-1.7-2-4-2.5-6.9 c-0.4-2.1-0.6-6.2-0.6-12.5v-29.3h-8.2v-14.2h8.2v-13.3l17.8-10.4v23.7H1153.2z"></path><path class="st2" d="M1182.5,310.9h-17.8v-67.2h16.5v9.5c2.8-4.5,5.4-7.5,7.6-8.9c2.3-1.4,4.8-2.1,7.7-2.1c4,0,7.9,1.1,11.7,3.4 l-5.5,15.5c-3-1.9-5.8-2.9-8.3-2.9c-2.5,0-4.6,0.7-6.3,2.1c-1.7,1.4-3.1,3.8-4.1,7.4c-1,3.6-1.5,11.1-1.5,22.5V310.9z"></path><path class="st2" d="M1253.6,289.6l17.7,3c-2.3,6.5-5.9,11.4-10.8,14.8c-4.9,3.4-11.1,5.1-18.4,5.1c-11.7,0-20.3-3.8-25.9-11.4 c-4.4-6.1-6.6-13.8-6.6-23.1c0-11.1,2.9-19.8,8.7-26.1c5.8-6.3,13.2-9.5,22.1-9.5c10,0,17.9,3.3,23.6,9.9c5.8,6.6,8.5,16.7,8.3,30.3 h-44.5c0.1,5.3,1.6,9.4,4.3,12.3c2.7,2.9,6.2,4.4,10.2,4.4c2.8,0,5.1-0.8,7-2.3C1251.2,295.4,1252.7,292.9,1253.6,289.6z  M1254.7,271.6c-0.1-5.1-1.5-9.1-4-11.7c-2.5-2.7-5.6-4-9.2-4c-3.9,0-7.1,1.4-9.6,4.2c-2.5,2.8-3.8,6.7-3.7,11.5H1254.7z"></path><path class="st2" d="M1280.5,291.8l17.8-2.7c0.8,3.5,2.3,6.1,4.6,7.9c2.3,1.8,5.6,2.7,9.7,2.7c4.6,0,8.1-0.8,10.4-2.5 c1.6-1.2,2.3-2.8,2.3-4.7c0-1.3-0.4-2.5-1.3-3.4c-0.9-0.8-2.9-1.6-5.9-2.3c-14.3-3.2-23.4-6-27.3-8.7c-5.3-3.6-8-8.7-8-15.1 c0-5.8,2.3-10.7,6.9-14.7c4.6-4,11.7-5.9,21.4-5.9c9.2,0,16,1.5,20.5,4.5c4.5,3,7.5,7.4,9.2,13.3l-16.8,3.1c-0.7-2.6-2.1-4.6-4.1-6 c-2-1.4-4.9-2.1-8.6-2.1c-4.7,0-8,0.7-10.1,2c-1.3,0.9-2,2.1-2,3.6c0,1.3,0.6,2.3,1.8,3.2c1.6,1.2,7.1,2.8,16.6,5 c9.5,2.1,16.1,4.8,19.8,7.9c3.7,3.2,5.6,7.6,5.6,13.2c0,6.2-2.6,11.4-7.7,15.9c-5.1,4.4-12.8,6.6-22.8,6.6c-9.1,0-16.4-1.9-21.7-5.6 C1285.7,303.2,1282.2,298.1,1280.5,291.8z"></path><path class="st2" d="M1352.5,291.8l17.8-2.7c0.8,3.5,2.3,6.1,4.6,7.9c2.3,1.8,5.6,2.7,9.7,2.7c4.6,0,8.1-0.8,10.4-2.5 c1.6-1.2,2.3-2.8,2.3-4.7c0-1.3-0.4-2.5-1.3-3.4c-0.9-0.8-2.9-1.6-5.9-2.3c-14.3-3.2-23.4-6-27.3-8.7c-5.3-3.6-8-8.7-8-15.1 c0-5.8,2.3-10.7,6.9-14.7c4.6-4,11.7-5.9,21.4-5.9c9.2,0,16,1.5,20.5,4.5c4.5,3,7.5,7.4,9.2,13.3l-16.8,3.1c-0.7-2.6-2.1-4.6-4.1-6 c-2-1.4-4.9-2.1-8.6-2.1c-4.7,0-8,0.7-10.1,2c-1.3,0.9-2,2.1-2,3.6c0,1.3,0.6,2.3,1.8,3.2c1.6,1.2,7.1,2.8,16.6,5 c9.5,2.1,16.1,4.8,19.8,7.9c3.7,3.2,5.6,7.6,5.6,13.2c0,6.2-2.6,11.4-7.7,15.9c-5.1,4.4-12.8,6.6-22.8,6.6c-9.1,0-16.4-1.9-21.7-5.6 C1357.7,303.2,1354.2,298.1,1352.5,291.8z"></path><g>	<g>		<path class="st2" d="M262.1,174.3c-0.9-4.8-2.6-9.3-4.6-13.7c-2-4.4-4.8-7.7-7.4-11.4c-4.1-5.7-9.5-10.1-15-14.1   c-4.1-3-8.4-5.1-13.1-6.5c-3.4-1-6.5-1.5-10.2-1.8c-3.6-0.3-7.1-0.4-10.6-0.1c-2.8,0.3-5.3,0.6-7.7,1c-2.6,0.5-5.2,1-7.7,1.7   c-2.8,0.8-5.5,2-8.2,3.2c-4,1.7-7.9,4.2-11.4,7.3c-4.4,3.9-7.8,8.5-10.5,13.7c-1.7,3.3-2.4,6.8-2.9,10.5c-0.2,1.3-0.3,2.7-0.4,4   c-0.1,2.6,0.5,5.1,1.1,7.6c0.8,2.8,1.3,5.6,2.9,8.1c1.6,2.5,3.5,4.7,6.1,5.9c4.2,1.8,8.3,2.4,12.8,2.3c1.5,0,2,0.3,2.6,1.5   c0.5,1,0.9,2.2,0.9,4c0,3.5,1.5,6.1,4.5,8.2c1.7,1.2,3.9,2,5.9,2.6c5.7,1.6,11.3,1.3,16.7-1.2c0.6-0.3,0.9-0.1,1.2,0.4   c1.2,1.8,2.8,3.1,4.7,3.8c0.6,0.2,1.2,0.5,1.8,0.9c0.7,0.5,1.3,1,1.9,1.6c4,3.5,8,7.8,11.6,12.1c0.6,0.7,1.3,0.6,1.7,0.5   c1.5-0.6,1.7-0.8,2.9-1.8c1.3-1.1,1.4-1.8,0.7-3.3c-0.7-1.2-1.5-2.4-2.2-3.6c-0.6-1.1-1.2-2.2-1.6-3.3c-0.4-0.9-0.2-1.2,0.7-1.3   c2.4-0.5,4.9-0.9,7.3-1.3c2.3-0.4,4.6-0.8,6.8-1.9c1.8-0.9,3.3-2.3,4.3-4.2c0.9-1.7,1.2-3.6,1.6-5.4c0.1-0.5,0.3-0.7,0.8-0.8   c1.2-0.2,2.4-0.3,3.5-0.6c1.7-0.5,3.2-1.2,4.2-2.9c0.3-0.5,0.6-0.9,0.9-1.4c1.2-1.8,2.2-3.8,2.8-6   C262.7,183.9,263,179.1,262.1,174.3z"></path>	</g>	<g>		<path class="st4" d="M214.5,200.2c-1.9-1.1-3.1-2.1-4-4.2c-0.3-0.7-1.3-0.3-1.8-0.3c-1.5,0.3-1.9,0.4-3.2,1.2   c-1,0.6-1.5,1.5-1.4,2.8c0,1.1,0,2.8-1.4,4.6c0.7-1.5,0.8-2.1,0.8-3.1c0-2.1-1.3-2.9-3.2-2.7c-0.6,0.1-1.1,0.2-2.3,0.8   c1-0.8,1.6-1.2,2.3-1.5c1-0.4,2.3,0.3,3.1-0.4c1.3-1,2.6-1.5,3.6-2.6c0.3-0.3,0.5-0.5,0.5-0.9c0.1-0.5-0.1-1.1-0.1-1.7   c0-1.3,0.3-2,0.7-3.1c-0.2,1.4-0.1,2.1,0.1,3c0.3,1.4,1.5,2.2,3.3,2.2c1.6,0,2.7-0.5,3.1-1.8c0.2-0.6,0.9-1.8,1.2-2.4   c0,0.2-0.2,0.8-0.3,0.9c-0.5,1.8,0.3,2.9,2.1,3c1.2,0.1,2.4-0.2,3.4-0.8c1.6-1,2.6-1.6,4.7-0.1c1.2,0.8,2.5,1.3,3.8,1.6   c2.8,0.6,5.6,0.5,8.3-0.1c2.4-0.5,4.3-2.9,4.6-5.4c0.3-2.3-0.2-4-0.8-6.1c-0.3-0.8-1-1.5-1.8-1.4c-0.9,0.1-1.5,0.5-2.4,0.5   c-1.6,0.1-2.9-0.2-4.2-1.1c-1-0.7-3-1.1-4.2-0.3c-0.5,0.3-1.2,1.1-1.9,1.6c-1.4,0.9-2.5,1.2-4.3,1.1c0.3-0.1,0.5-0.1,0.6-0.2   c2-0.7,3.1-1.6,4.4-2.8c1.3-1.3,2-2.2,1.9-4.1c0-0.9-0.2-1.2-1-0.9c-0.6,0.2-1.9,0.6-3.9,0.2c2-0.3,3.3-0.6,4.4-1.5   c2.1-1.5,3.8-5.8,4.3-7.4c0.8-2.5,1.2-5.1,1.2-7.1c-0.1-1.9-0.7-3.7,0.2-8.4c0.4-2.1,0.6-6.3-3.7-8.3c1.9,0.1,2.8,0.9,3.6,1.7   c0.4,0.4,1,0.9,1.3,0.7c1.3-0.7,2.4-0.6,3.6-0.7c1.3-0.1,2.3-0.8,1.8-2c-0.1-0.4-1-1.1-1.3-1.4c-1.3-1.3-2.9-2.8-3.9-3.2   c-1.2-0.6-2.2,0-2.6,1.3c-0.2,0.8-0.2,1.5,0.2,2.5c-1-1-1.3-2-1.2-3.1c0.1-0.8,0.4-1.7,0.2-2.5c-0.4-1.8-2.2-3.1-4-1.7   c-2.4,1.8-5.3,1.7-6.9,0.4c1.9,0.6,4,0.2,5.1-0.5c0.4-0.2,0.9-0.5,1.1-1.1c0.2-0.7,0-1.1-1-1.5c-2.9-1.1-4.5-1.7-8.5,1   c-0.5,0.4-1,0.9-0.9,1.6c0.1,0.8-0.3,0.8-0.8,0.9c-3.1,0.6-6,1.9-7.7,4.6c-0.9,1.3-0.8,2.3,0.5,3.1c0.4,0.3,0.8,0.5,1.2,0.8   c0.7,0.6,0.7,1.1,0.1,1.7c-0.9,0.8-2.9,1.4-4,1.9c-1.7,0.8-4,1.5-5.4,4c-3.2,5.7-1.5,13.1,0.2,14.5c0.1,0.1,0.2,0.1,0.1,0.7   c-0.2,0.9-0.6,1.6-0.8,2.9c0,0.4-0.2,1.7,0.2,2.4c0.2,0.5,1.4-1,1.8-1.7c2.4-3.9,6.4-4.9,7-5.6c1.5-1.5,1.7-2.5,0.9-4.2   c-0.3-0.6-1.1-3-0.1-5.2c-0.4,3.7,2.5,8.1,6.1,8c6.2-0.2,7.8-5.9,8.1-9c0.3-2.4,2.1-3.6,2.9-3.9c-1.5,2.1-1.9,3.2-1.9,6.9   c0,1.5-0.3,3.4-2.5,5.5c-0.8,0.7-0.8,1,0,1.7c1.2,0.9,1.8,1.9,1.8,4c-0.1-0.2-0.1-0.3-0.1-0.4c-0.8-2-2.4-3.8-4.3-3.4   c-2.4,0.5-4.6,0.4-6.6-0.2c-0.8-0.3-1.9,0.8-2.6,1.5c-1.6,1.8-3.2-0.1-6.6,4.6c-1.1,1.6-1.5,2.6-4,4c-0.8,0.4-1.5,1.1-1.9,1.6   c-1.4,1.8-2,4.1-2.1,6.4c-0.1,1.6,0.1,3.1,0.8,4.4c0.7,1.3,1.5,0.9,2.2,0c0.4-0.5,0.8-1.2,1.1-2c0,1.2-0.3,1.9-1.3,3.4   c-0.8,1.2-0.8,2.3,0.2,3.3c0.6,0.6,1.1,1,2,1.4c-0.9-0.1-1.9-0.5-2.6-1.2c-0.4-0.4-0.9-0.7-1.5-0.5c-0.5,0.1-0.7,0.2-1.2,0.4   c-1.3,0.6-2.1,1-3.1,2.8c0-0.2,0.2-2.1,3.3-3.7c1.1-0.5,1.3-1.3,0.8-2.4c-0.2-0.4-0.5-0.9-0.7-1.3c-0.6-1.1-0.9-2.2-1-3.4   c-0.4-3.5,0.7-6.1,0.8-6.7c0.2-1,0.2-1.1-0.4-1.2c-3.4-0.7-6.3-0.4-9.8,2.6c-2.4,2.1-4.5,3.9-6.5,7c-0.9,1.4-1.3,3.6-1.2,5.3   c0.2,2.7,0.9,6.3,3.8,8.5c1.1,0.8,2.4,1.4,3.8,2.1c-0.4,0-0.9-0.2-1.2-0.2c-0.8-0.2-1.9-0.5-2.6-0.7c-0.7-0.2-1.1,0.3-0.8,1   c0.2,0.5,0.8,1.2,1.2,1.5c1.8,1.6,3.8,2.7,6,3.2c4.7,1.1,9.4,0.8,14-0.6c3.8-1.2,7.3-3,10.8-5.1   C214.2,200.7,214.8,200.4,214.5,200.2z M231.1,187.2c1.3-0.7,2.6-1.4,4.5-0.7c-0.6-0.1-0.8,0-1.2,0.1c-1.8,0.5-2.2,1.7-0.7,3.5   c-0.1-0.1-0.2-0.1-0.4-0.2c-1.5-1-3.1-0.9-4.8-0.5c-1.2,0.3-2.4,0-3.5-0.7C227.3,189.3,229.2,188.2,231.1,187.2z M225.9,142.1   c-0.4,0.1-0.9,0.1-1.3,0.1c-1.2,0.1-2.1,0.7-2.7,1.8c-0.9,1.5,0.4,2.5-3,5.5c-1.4,1.7-2.7,2.8-2.4,5.1c0.1,0.6,0.2,1.2,1.2,2.4   c-1.3-0.8-1.8-1.7-2.1-4.8c-0.1-0.7-0.6-1-1.2-1.1c-1.5-0.4-2.9,0.1-4.3,0.7c-0.6,0.3-1.1,0.6-1.7,0.9c0.4-0.7,1.8-1.8,2.8-2.2   c1.4-0.6,2.8-0.6,4.2-0.4c0.8,0.2,1.5-0.1,2.1-0.7c1.4-1.4,2.9-2.4,2.9-5.1c0-1-0.4-1.6-1.1-2.1c-0.5-0.4-1.1-0.7-1.9-0.9   c0,0,1.1,0,2.2,0.7c0.8,0.5,1.7,0.8,2.5,0.2c1.9-1.3,2.8-0.5,4.4-1.1c1.3-0.4,2.2-1.7,2.7-3C228.2,142.1,226.8,141.9,225.9,142.1z    M209.2,177.2c1.6,0.3,2.9,0.3,4.4-0.4c2.8-1.5,4.8-4.1,7.1-3.7c0.1,0,0.2,0,0.1,0c-2.5,0.3-4.1,3.1-6.4,4.8   c-1.1,0.9-1.9,0.4-2.3,1.2c-0.4,0.9-0.1,1.7,0.6,2.3c0.9,0.6,1.4,0.7,2.4,1c1.8,0.7,3,1.6,3.8,4.5c-1.4-2.4-2.3-3.1-3.4-3.4   c-0.4-0.1-1.1-0.2-1.6-0.1c-0.6,0.1-1,0.7-1.1,1.5c-0.2,1.3-0.4,2.6-0.5,3.7c-0.1-1.1-0.3-2.4-0.3-3.7c0-2.8-1.2-4.9-3.1-6.4   c-1.3-1.1-3.5-1-4.6,0.5C205.4,176.6,207.7,177,209.2,177.2z M194.5,202.6c-1.1-0.1-1.8,0-2.2,1.1c-0.2,0.4-0.1,1-0.7,1.6   c0.7-2.4,0-3.5-1.1-4.8c-1-1.2-2-2.6-2.7-5.1c-0.6-2.2-2.1-3.3-4.2-3.2c-0.1,0-0.2,0-0.4,0c0.8-0.5,1.7-0.6,2.6-0.4   c0.3,0.1,0.6,0.2,0.9,0.2c0.6,0.1,1-0.1,1.1-0.8c0.2-1.1,0.4-2.2,0.5-3.4c0.2-1.2,0.6-2.2,1.7-2.9c1.2-0.8,2.2-2,2.7-3.5   c0.2,0.8-0.1,1.4-0.5,2.1c-0.3,0.5-0.7,1-1.1,1.4c-1.3,1.4-2,3-2,5c0,1.2-0.2,2.4-0.2,3.6c0,3.2,1,5.9,3.5,7.7   c1,0.7,1.9,1.1,3.2,1.2c0.3,0,0.4,0,1.1,0.1C196,202.8,195.3,202.7,194.5,202.6z"></path>		<path class="st4" d="M179.5,184.1c1.1-1.6,2-2.7,3.1-3.9c1-1,2.9-2.7,2.1-2.7c-3.6-0.2-5.4-1.4-6.7-5.7c1.6,2.7,3.4,4,5.2,4.2   c1.4,0.2,2.5-1.1,2.7-2.6c0.2-1.9,0.9-2.4,1.3-3.3c0.4-0.9,0.7-2.3-0.1-5.2c0.9,1.3,1.6,3.1,1.3,4.8c-0.2,0.9-0.5,1.8-0.9,2.7   c-0.4,0.9-0.4,2.6-0.2,3.3c0.1,0.4,0.7,0,1-0.2c1.4-0.9,2.6-1.2,4-1.2c0.9,0,1.9,0.1,2.8-0.1c1-0.1,2.1-0.2,2.8-0.9   c1.4-1.3,1.6-2.5,2-4.4c0.3-1.3,0.6-2.4-0.1-3.3c-1.3-1.6-1.7-4.3-1.8-6.4c-0.3-6.9,3.4-11.4,7.1-12.6c0.5-0.2,1-0.3,1.5-0.5   c0.7-0.3,1.1-0.9,1.1-1.8c0-1.7-0.5-3.1-1.9-4.1c0.4,0.2,0.9,0.3,1.3,0.5c1.5-3.1,2.6-4.1,6.6-5.2c0.8-0.2,1.6-0.7,2.4-1.1   c0.4-0.3,0.9-0.7,1.1-1.1c0.2-0.4-0.1-1-0.2-1.5c1,0.1,1.5,0,2.3-0.2c0.5-0.1,1-0.5,1-1.1c0-0.7-0.4-0.9-0.7-1   c-0.7-0.3-1.4-0.5-2.2-0.6c-1.6-0.2-3.3,0.8-4.8,1.4c-0.8,0.3-2.3,0.6-3.2,0.8c0.5-0.3,0.9-0.5,1.1-0.8c0.7-0.8,1-1.4,0-1.9   c-0.6-0.3-1.8-0.5-2.5-0.5c-3-0.1-5.6-0.2-8.8,0.4c-2.2,0.4-3,2.4-2.5,4.4c-0.6-0.6-1-1.3-1.2-2.3c-0.1-0.7-0.4-1-1.3-0.9   c-1.3,0.2-2.1,1.1-3,2.7c-0.7,1.2-1.6,1.4-2.6,1.4c-1.2,0-1.9,0.5-3,1.5c0.9-1.6,1.5-2.1,3.3-2.2c0.7,0,1.2-0.5,1.6-1.3   c0.1-0.2,0.3-0.7,0.1-0.8c-0.8-0.6-3.2-0.2-4.1,0.1c-2.6,0.9-3.9,1-6.5,2.3c-1.1,0.5-2.2,1.3-2.7,2.7c-0.1,0.4-0.3,1-0.1,1.3   c0.1,0.2,0.7,0.2,1.1,0.3c0.9,0.1,1.8-0.1,2.6,0.1c1.1,0.2,2.2,0.9,2.2,2.3c0,0.5,1.2-1.5,2.5-1.8c-1.3,0.9-2.2,3.1-2.5,4.8   c-0.2,1.1,0.2,1.9,1,2.6c1.1,1,2.2,2,3.3,3c0.8,0.8,2.1,1,3.1,0.3c1.1-0.7,1.4-1.4,0.8-2.7c-1-1.9-0.7-3.4-0.3-4.6   c0.8-2.4-1.4-3.8,1.7-6.3c-2.3,3.3,0.2,4.2-0.4,6.1c-1.1,3.3,0.5,5.2,1.9,5c2.5-0.4,4.1-2.3,4.7-4.1c-0.6,4-3.1,5.2-5,5.5   c-1.3,0.2-1.1,1.8-3,2.6c-0.8,0.3-0.8,1.3-0.4,2.1c0.8,1.8,0.8,3.6,0.3,5.5c-0.3,1-0.1,1.8,0.4,2.6c0.4,0.6,0.8,1.3,1.2,1.9   c0.5,0.9,0.9,1.9,0.9,3c-0.2-0.5-0.4-0.9-0.7-1.4c-1.7-3.1-3.3-3.8-6.5-2.6c-3.7,1.5-5.7,1.4-9.2,1.6c-1.7,0.1-2.8,3.3-3.4,5.2   c-0.4,1.4-1.4,2.4-2.5,3.3c-0.4,0.3-0.8,0.7-1.1,1.1c-1.4,1.7-0.8,4.2,0.4,5.3c1.1,1.1,3.1,1.7,5.3,1.6c-0.8,0.4-1.4,0.5-2,0.5   c-2.2,0-4-0.9-6.3-4.2c-0.7-1-0.8-1.4-2.3-1.2c-0.9,0.1-3.9,0.3-5.3-1.9c1,0.6,1.8,0.9,2.6,1c1.9,0.2,3.4-0.2,5.1-1.1   c0.5-0.3,1.7-1.1,1.2-1.3c-1.9-1-2.4-1.7-2.7-2.6c0.3,0.3,0.6,0.6,0.8,0.7c2.4,1.5,5.7,0.9,6.4-2c1-4.1,2.3-5.7,3.9-5.6   c3.9,0.3,8.6-1.1,10.9-2.8c1.7-1.2,2.5-4.7,1.2-6.4c-0.5-0.7-1-1.4-1.4-2.2c-1.1-1.8-2.4-3.6-4.4-4.3c-1.3-0.5-1.4-0.6-1-2   c0.1-0.3,0.2-0.6,0.2-0.9c0.1-0.9,0.2-1.8,0.2-2.6c-0.1-1.3-0.9-2.1-2-2.2c-1.4-0.1-2.7,0.2-3.9,0.8c-1,0.5-1.9,1.2-2.2,2.5   c-0.3,1.2,0,2.3,1.6,2.1c0.6-0.1,1.4-0.2,2,0.4c-0.5-0.2-1.1-0.2-1.6,0c-2.4,0.8-4.2,1.9-5.4,4.4c-0.6,1.3-0.9,2.6-0.5,4.1   c0.2,0.8,0.7,0.7,1.4,0.5c0.3-0.1,0.6-0.3,0.9-0.4c1.9-0.7,3.5-0.6,5.2,0.5c1.3,0.8,2.5,1.1,4.4,0.6c-1.5,0.8-3,0.9-4.5,0.3   c-1.1-0.4-2.3-1-3.5-0.7c-1.4,0.4-3.2,1.1-3.2,4c0,1.1-0.3,2.4-1.8,3.7c1-1.4,1.3-3.4,0.7-3.9c-0.5-0.5-1,1.1-2.9-0.8   c-0.3-0.3-0.6-0.6-0.9-0.8c-1-0.8-1.8-0.8-2.8-0.2c-1.2,0.6-2.1,1.4-2.9,2.1c-0.9,0.8-2.2,2.5-3.1,4c-1.1,1.9-1.5,4.1-1.7,6.3   c-0.2,1.2-0.2,2.5,0.4,3.7c-0.8,0.3-1,0.9-1,1.7c-0.1,2.5,0.3,5,1,7.4c0.6,2,2.1,2.9,3.6,2.8c1.6-0.1,2.6-0.5,3.1-2.3   c0.1-0.4,0.3-0.9,0.4-1.3c0,2.2,1.2,3.5,2.9,4.1c1.7,0.6,2.6,1.5,4.1,2c1.4,0.4,3,0.4,4.4,0.5   C176.9,186.5,178.5,185.7,179.5,184.1z M196.4,137.7c1.3-1.1,2.9-1.4,3.6-1.5c-0.7-2-0.6-3.8,0.7-5.5c-0.7,1.9-0.4,3.7,0.2,4.4   c0.8,0.9,1.7,0.5,2.3-0.5c0.6-1,1.8-2.5,3.6-3c-1.7,1.2-2.9,2.5-4.2,7.2C202.8,136.5,198.8,136.7,196.4,137.7z M162,164.7   c0.7-0.7,1.5-1.4,2.4-2.1c-0.9-0.9-1-2.1-0.9-3.3c0.9,1.6,2.1,2.8,3.9,3.6c-2.9,0.8-5.1,2.3-7.1,4.8   C160.6,166.3,161.2,165.5,162,164.7z"></path>		<path class="st4" d="M226.6,194.8c-0.5-0.3-1-0.6-1.5-1c-1.1-0.9-1.7-0.9-2.8-0.2c-0.8,0.5-1.5,1-2.4,1.4   c-1.2,0.6-2.5,0.2-3.8-0.1c-0.7-0.2-1.5-0.3-2.2-0.3c-1.4,0.1-2,1.2-1.1,2.5c0.6,0.8,1.4,1.5,2.1,2.1c0.3,0.3,0.9,0.3,1.3,0.3   c1-0.1,2-0.5,2.8-0.6c1.2-0.2,2.9-0.4,3.8-0.6c1.7-0.3,2.5-0.5,3.9-1.2C227.9,196.6,227.7,195.5,226.6,194.8z"></path>		<path class="st4" d="M175.4,187.6c-0.7,0-1.4,0-2.1,0c-1.4,0.1-2.8,0.2-4-0.6c-0.9-0.5-1.5-0.1-2.1,0.4c-0.7,0.7-0.9,1.6,0,1.8   c1.6,0.5,4.2,1.2,5.9,1.2c1.3,0,2.2,0,2.9-0.5c0.5-0.4,0.6-1.2,1-1.9C177.5,187.5,176.1,187.6,175.4,187.6z"></path>		<path class="st4" d="M167.8,186.2c-0.4-1-2.3-2-3.9-2.1c-1.8-0.1-3.8,0.4-5.5,0.1c-0.7-0.1,0.7,1.3,1.5,1.9c1,0.8,2.3,2,3.6,2.3   c1.3,0.3,1.8-0.6,2.9-1.3C166.7,186.9,167.9,186.6,167.8,186.2z"></path>		<path class="st4" d="M216.7,202.5c-1,0.7-1.1,1.4-0.6,2.5c0.4,0.8,1.5,2.4,2,2.3c0.8-0.1,1,0,1.7,0.3c1.9,0.9,7.6-5.1,7.9-8.2   c-0.7,0.1-1.3,0.2-1.9,0.3C225.3,199.8,218.9,200.9,216.7,202.5z"></path>		<path class="st4" d="M255,165.9c-0.4,0.4-0.5,0.7-0.1,1.1c0.8,1.1,1.3,2.3,1.1,3.7c-0.1,1-1.2,2.1-0.7,3.1c0.6,1.1,1.7,0.4,3.3,1   c0.7,0.3,1.8,0.2,1.9-0.6c0-0.3-0.2-1.2-0.2-1.5c-0.6-3.4-0.9-4.3-1.8-6.6c-0.2-0.6-0.5-1.2-0.8-1.5c-0.5-0.7-1.4-0.6-2,0.1   C255.4,165.1,255.3,165.6,255,165.9z"></path>		<path class="st4" d="M157,160.8c0-0.5-0.8-0.1-1.5-0.1c-0.4,0-0.7,0-0.8,0.5c-0.6,2.4-1.2,4.9-1,7.5c0.1,1.9,0.1,4.4,1.1,5.9   c0.1,0.1,0.2-0.4,0.2-0.7c0.1-4.9,0.3-5.8,1.2-9.3C156.5,163,157.1,161.6,157,160.8z"></path>		<path class="st4" d="M157.2,159.8c0.6,0,0.9-0.2,1.3-0.6c1.5-2.1,2.7-3.2,4.8-4.3c1.6-0.8,2.8-1.1,4.6,0.5   c0.2,0.2,0.4,0.3,0.6,0.4c0.5,0.3,1,0.3,1.5-0.1c0.9-0.7,1-2.1,0.1-3.2c-0.9-1.2-2.1-1.8-3.6-1.7c-1,0.1-1.7,0.3-3,0.8   c1.5-1.4,3.2-1.8,4.7-1.6c1.2,0.1,1.4,0.3,1.9-1c0.8-2,1.9-2.8,2.8-3.8c1.6-1.7,1.7-4.5,0-4.9c1,0,1.4,0,1.9-0.5   c2.4-2.1,1.8-2.7,2.2-4.3c0.2-0.6,0.1-0.9-0.8-0.7c-2.9,0.9-11.6,6.9-15.3,13.7c-0.2,0.4,0.8,0,1.2-0.1c1-0.2,1.4-1.5,1.9-2.1   c1.1-1.2,2.9-1.9,4.7-1.8c-2.5,0.8-4.1,1.7-4.7,3.5c-0.3,0.7-0.9,1-1.3,1.1c-0.6,0.2-2.6,0.9-3.4,1.9c-1.9,2.4-2.8,4-3.7,7.5   C155.3,159.3,156.7,159.8,157.2,159.8z"></path>		<path class="st4" d="M239,208.8c-0.7-0.4-6.1-1-10.5-5c-0.4-0.4-1,0.2-1.4,0.6c-0.5,0.6-1.1,1.3-1.7,2.2c1.7,1.7,3.5,3.2,5.7,4   c1.8,0.7,3.5,0.1,5.3-0.2C238.6,210,240.2,209.5,239,208.8z"></path>		<path class="st4" d="M244,204.9c-1.8-1.2-3.9-1.8-6-2.2c-0.9-0.2-1.7-0.4-2.8-0.4c-0.4,0-0.9,0-1.3,0c-0.8,0-4.6,0.6-4.5,0.7   c2.7,2.8,8.3,4.5,12.2,5.1c0.5,0.1,1.1-0.1,1.6-0.5c0.7-0.5,1.6-1.2,1.6-1.7c0-0.3-0.3-0.6-0.5-0.8   C244.2,205.1,244.1,205,244,204.9z"></path>		<path class="st4" d="M247.1,199.3c-2.3-0.8-4.6-1.5-7-1.8c-2.4-0.4-4.8-0.3-7.1,0.6c-0.2,0.1-1.3,0.5-2,1c-1,0.6-1.2,1-1.4,2.3   c0.2,0,0.3,0,0.5,0c1.2,0,2.4-0.1,3.6-0.1c2.9,0,5.8,0.5,8.6,1.5c1.3,0.5,2.5,1.2,3.8,1.8c0.1-0.2,0.4-0.6,0.5-0.9   c0.4-0.9,0.9-3.3,1-3.9C247.5,199.5,247.4,199.4,247.1,199.3z"></path>		<path class="st4" d="M225.4,213.8c-0.1,0-0.2,0-0.3,0c-1.8,0.1-3-1.1-4.4-2.7c-0.5-0.6-1.9-2.5-2.6-2.4c-1.3,0.1-2.7-2.4-3.4-3.8   c-0.8-1.5-0.6-1.2-2-0.7c-0.2,0.1-2.7,1.1-4,1.7c-0.1,0.1-0.2,0.1-0.4,0.2c0.8,2.4,2.7,3.4,5.5,4.5c1.2,0.5,5.1,3.9,6.1,5.1   c1.7,1.8,3.3,3.7,5,5.5c0.8,0.9,1.4,1.9,2.2,2.7c1,1,0.8,1.2,2.9-0.2c0.3-0.2,0.8-0.6,1-0.9c0.4-0.5,0.5-1,0.1-1.5   c-0.3-0.6-0.8-1.1-1.1-1.7c-1.2-1.7-2.4-3.3-3.4-5C226.1,214.1,226,213.8,225.4,213.8z"></path>		<path class="st4" d="M256.9,175.4c-0.2,0-0.4,0-0.6-0.1c0.3,2.7-0.3,4-1,4.6c0.6-2.7-0.2-4.4-0.9-5.4c-0.9-1.3,0.8-3,0.9-4.4   c0.1-1.6-0.8-2.8-2.2-3.4c0-0.1,0.1-0.1,0.1-0.1c0.1-0.1,0.2-0.2,0.4-0.3c1.8-2,2.5-4.3,1.7-7c-0.2-0.8-0.7-1.6-1.2-2.2   c-1.4-1.7-3.7-1.5-4.9,0.3c-0.8,1.2-1.6,2.5-2.4,3.8c-1.3,1.9-4.3,1.3-5-1c-0.2-0.7-0.4-1.3-0.4-2c-0.2-1.8-0.3-3.6-1.4-5.1   c1.1,0.6,1.5,1.6,1.8,2.8c0.1,0.5,0.3,0.5,0.7,0.4c0.9-0.2,1.5-0.8,1.9-1.7c0.5-1,0.3-2,0.1-3.1c1.2,1.9,0.8,3.8-0.9,5   c-0.1,0.1-0.2,0.1-0.3,0.2c-1.1,1-1,2.9,0.3,3.7c1.5,0.9,3.4-0.1,3.9-1.9c0.1-0.5,0.2-1,0.2-1.5c0.2-1.5,0.8-2,2.2-2.1   c0.4,0,0.7,0,1.1-0.1c0.8-0.3,0.8-0.6,0.3-1.4c-0.4-0.8-1-1.5-1.5-2.2c-2.2-2.7-4.5-6.3-10.5-4.8c-1.5,0.4-2.3,1.3-2.6,2.5   c-1.3,5.8-0.9,9.4-0.2,12.5c0.8,3.9,1.6,6.9,4.9,8.7c3.4,1.8,7.2-0.6,7.5-4.6c0-0.4,0.1-0.7,0.1-1.2c2.6,5.2,2.3,12.1-0.9,16.9   c0.6-1.9,1.8-3.8,1.3-10.8c-0.1-1.1-1-1.1-1.8-0.4c-0.9,0.7-1.7,1.2-2.1,2.5c-0.4,1.4-1,2.6-2.1,3.5c0.2-0.2,0.2-0.4,0.3-0.5   c0.9-1.6,1-2.4,1.1-3.4c0.1-0.8-0.7-0.5-2.4-0.8c-2.4-0.4-4.4-1.6-5.5-3.9c-1.2-2.7-1-4.5-1.6-1.7c-0.6,2.4-1,5-3.2,7.9   c-1,1.3-1.5,2.4-1.4,4.2c0.1,1.1,0.2,1.7,1.1,2c0.6,0.2,0.8,0,1.5,0.4c2.5,1.4,3.6,1.7,6.7,0.7c2.2-0.7,2.5,0.5,5.6-1.2   c-0.7,0.6-1.3,1.2-2.1,1.6c-0.9,0.5-1,1.2-0.9,2.1c0,0.3,0.1,0.6,0.1,1c0.3,2,1.4,3.2,3.3,3.4c1.3,0.1,2.5-0.1,3.7-0.6   c1.4-0.6,2.6-1.7,3.6-3c-0.4,1.2-1.5,2.7-2.8,3.5c-2.1,1.3-4.3,1.7-6.7,0.8c-0.2,2-0.7,2.8-1.2,4.1c-0.6,1.4,0,3.4,1.2,3.9   c3.4,1.5,6.9,1.7,10.3,0.1c1.6-0.7,2.8-2,3.6-3.6c0.2-0.5,0.4-1,0-1.6c-0.5-0.6-1.2-0.5-1.9-0.5c-1,0-0.9,1-2.6,1.3   c-0.4,0.1-0.4,0.3-0.5,0.5c-0.4,1.5-1.5,2.1-2.6,2.8c0.5-0.6,1.2-1.3,1.6-2c0.4-0.7-0.1-1-0.8-1.1c-0.7-0.1-1.1-0.3-1.5-0.5   c2.7,0.4,4-0.2,5.3-1.5c0.2-0.2,0.4-0.3,0.8-0.3c2,0.4,4.1-0.8,4.3-2.8c0.1-1.4-0.7-2.3-1.5-3.4c-0.3-0.4-0.6-1-0.7-1.7   c0.9,1.2,2,2.3,2.7,2c0.8-0.3,1-3.3,0.9-4.4C261,177.4,258.9,175.9,256.9,175.4z"></path>		<path class="st4" d="M229.4,211.1c-1.5-1.2-3-2.3-4.5-3.5c-0.5-0.4-0.8,0-1.2,0.2c-0.5,0.3-0.9,0.7-3,1.4c1.1,2.1,2.9,3.5,4.5,3.4   c1.4-0.2,4.1-0.8,4.5-0.9C230,211.6,229.8,211.4,229.4,211.1z"></path>	</g></g></svg>